<?xml version="1.0" standalone="no"?>
<!DOCTYPE svg PUBLIC "-//W3C//DTD SVG 20010904//EN"
 "http://www.w3.org/TR/2001/REC-SVG-20010904/DTD/svg10.dtd">
<svg version="1.0" xmlns="http://www.w3.org/2000/svg" viewBox="0 0 297.000000 300.000000"
 preserveAspectRatio="xMidYMid meet">
<metadata>
Created by potrace 1.10, written by Peter Selinger 2001-2011
</metadata>
<g transform="translate(0.000000,300.000000) scale(0.100000,-0.100000)"
fill="#000000" stroke="none">
<path d="M440 2489 l0 -391 -43 -51 c-299 -355 -360 -855 -154 -1272 35 -72
136 -222 172 -255 14 -13 25 -29 25 -37 0 -7 4 -13 9 -13 6 0 36 -23 68 -51
164 -145 375 -248 576 -281 94 -15 312 -15 407 1 198 32 409 135 573 280 l58
51 355 0 354 0 0 1205 0 1205 -1200 0 -1200 0 0 -391z m1090 -169 c209 -50
347 -128 505 -285 214 -214 309 -441 309 -740 0 -209 -44 -369 -151 -548 -60
-101 -221 -268 -320 -331 -319 -205 -709 -227 -1048 -60 -449 220 -680 746
-540 1227 54 188 134 320 279 462 174 171 363 262 621 299 69 10 254 -3 345
-24z"/>
<path d="M1156 2319 c-110 -14 -183 -37 -295 -90 -125 -59 -203 -114 -299
-209 -118 -119 -227 -304 -266 -455 -93 -362 7 -733 269 -998 89 -90 171 -147
296 -206 123 -59 188 -77 331 -92 116 -13 256 -3 372 27 81 21 253 103 331
159 78 55 183 161 241 241 55 76 138 249 158 329 94 368 -9 741 -276 1005
-229 226 -540 330 -862 289z m13 -674 c110 -26 188 -71 277 -160 134 -132 181
-256 172 -451 -6 -124 -25 -185 -88 -282 -106 -165 -264 -258 -457 -269 -120
-7 -198 8 -297 60 -151 78 -254 200 -302 356 -15 47 -33 98 -40 112 -47 90
-62 338 -30 473 31 128 35 112 36 -124 2 -212 2 -221 15 -165 37 167 144 310
295 393 54 29 129 57 180 65 59 10 180 6 239 -8z m501 -1180 c0 -2 -43 -18
-95 -34 -189 -61 -371 -61 -560 0 -52 16 -95 32 -95 34 0 3 169 5 375 5 206 0
375 -2 375 -5z"/>
</g>
</svg>
